Coordinates
version=1
nRows=26
nColumns=24
inDegrees=yes

Units are S.I. units (second, meters, Newtons, ...)
Angles are in degrees.

endheader
time	pelvis_tilt	pelvis_list	pelvis_rotation	pelvis_tx	pelvis_ty	pelvis_tz	hip_flexion_r	hip_adduction_r	hip_rotation_r	knee_angle_r	ankle_angle_r	subtalar_angle_r	mtp_angle_r	hip_flexion_l	hip_adduction_l	hip_rotation_l	knee_angle_l	ankle_angle_l	subtalar_angle_l	mtp_angle_l	lumbar_extension	lumbar_bending	lumbar_rotation
      1.16216667	     -0.95046616	     -2.07135809	     -1.15599764	     -0.16270514	      1.00458453	      0.33296898	    -15.84168977	      6.41043559	      1.20124050	     -5.99086795	     14.41152173	     -3.69811921	      2.97392013	     20.53263872	     -2.31812216	     -2.05579254	      8.98480647	      3.63613077	     -6.16547474	     -2.80090613	     -1.63966447	     -0.42596067	      6.55429903
      1.16633333	     -0.97267451	     -1.90286382	     -1.27568727	     -0.15694836	      1.00368711	      0.33265855	    -15.97512318	      6.15143277	      1.03893454	     -6.38879714	     14.74469861	     -3.27923683	      2.99426721	     20.66741945	     -2.12101317	     -2.05161347	      8.49500006	      3.85192733	     -6.04621201	     -2.73139835	     -1.54936774	     -0.63201912	      6.74755402
      1.17050000	     -0.96483248	     -1.73523408	     -1.37799115	     -0.15118443	      1.00285959	      0.33234089	    -16.15534365	      5.90575441	      0.96936223	     -6.74880178	     14.93430697	     -3.07634255	      3.01626510	     20.79098252	     -1.92064844	     -2.03536562	      7.91024645	      3.98420085	     -6.01451605	     -2.61924209	     -1.51806906	     -0.84241177	      6.82432531
      1.17466667	     -0.94956250	     -1.55308735	     -1.47170798	     -0.14538341	      1.00206251	      0.33203392	    -16.35497156	      5.65758698	      1.00017887	     -7.08089686	     15.01328533	     -3.10953759	      3.02314848	     20.90409513	     -1.70452658	     -1.96345198	      7.27852823	      4.04613252	     -6.12348018	     -2.58825913	     -1.50323910	     -1.06829876	      6.85409033
      1.17883333	     -0.95374499	     -1.35033866	     -1.56236882	     -0.13953303	      1.00127216	      0.33167160	    -16.48796673	      5.37545277	      0.88785692	     -7.51613552	     15.23259271	     -2.82902288	      3.06616221	     21.06983037	     -1.46252480	     -2.02189124	      6.53298505	      4.11282550	     -6.02267509	     -2.39840115	     -1.42882188	     -1.32437577	      7.03112396
      1.18300000	     -0.92772572	     -1.13631161	     -1.62971475	     -0.13362855	      1.00053868	      0.33131210	    -16.68160117	      5.10120939	      0.89126661	     -7.89030673	     15.31775431	     -2.83235491	      3.09113523	     21.19294109	     -1.20377632	     -1.98847675	      5.77117071	      4.09618026	     -6.08993573	     -2.28317162	     -1.38918185	     -1.61057602	      7.06363728
      1.18716667	     -0.89314630	     -0.92139158	     -1.70268265	     -0.12773337	      0.99985377	      0.33094253	    -16.85292374	      4.82528517	      0.88992609	     -8.32355029	     15.34670880	     -2.89576832	      3.10334020	     21.31653349	     -0.94515827	     -1.97372541	      4.95830281	      4.02907410	     -6.20247115	     -2.23097970	     -1.40436933	     -1.85579771	      7.09738952
      1.19133333	     -0.89201543	     -0.68759270	     -1.76908448	     -0.12177263	      0.99914681	      0.33052141	    -16.95197849	      4.52009593	      0.76811983	     -8.84252414	     15.51183686	     -2.65839770	      3.20966843	     21.50073207	     -0.66440031	     -2.07882440	      4.06705079	      3.95068104	     -6.11104500	     -1.82075346	     -1.31768665	     -2.15059772	      7.26417804
      1.19550000	     -0.84141010	     -0.44682719	     -1.81534878	     -0.11577719	      0.99853535	      0.33010546	    -17.12942137	      4.22940745	      0.77899940	     -9.30214513	     15.48877828	     -2.78790335	      3.22513530	     21.61055873	     -0.37032436	     -2.06189649	      3.19913021	      3.77909660	     -6.24782619	     -1.75948755	     -1.31957003	     -2.44902741	      7.26519284
      1.19966667	     -0.80683679	     -0.19967906	     -1.85648163	     -0.10972174	      0.99793954	      0.32967936	    -17.27701423	      3.93498689	      0.78305132	     -9.79270462	     15.46569055	     -2.88001178	      3.26311103	     21.73645093	     -0.06954213	     -2.07168216	      2.31667208	      3.51582079	     -6.36876026	     -1.63205114	     -1.25406512	     -2.79403005	      7.29163607
      1.20383333	     -0.76152849	      0.04971599	     -1.89182504	     -0.10368283	      0.99739089	      0.32921808	    -17.40687658	      3.63947111	      0.76888293	    -10.33677506	     15.40567543	     -3.00057348	      3.28896035	     21.85961801	      0.23700117	     -2.07973412	      1.40536438	      3.24945025	     -6.50649214	     -1.55192373	     -1.25628555	     -3.07823305	      7.31789853
      1.20800000	     -0.68799578	      0.31856513	     -1.91934359	     -0.09756662	      0.99692251	      0.32872598	    -17.54656882	      3.31389036	      0.65341369	    -10.92418906	     15.33228277	     -2.90955117	      4.47717909	     21.90912287	      0.57073212	     -1.97853799	      0.58572695	      2.66724534	     -6.94879868	      1.68264946	     -1.25179122	     -3.44178295	      7.41374751
      1.21216667	     -0.67699331	      0.57386281	     -1.93348187	     -0.09145808	      0.99639948	      0.32823394	    -17.61611810	      3.02951432	      0.68718867	    -11.51905880	     15.22908583	     -3.14577756	      4.49743069	     22.07620298	      0.88449689	     -2.02079243	     -0.35823062	      2.34098378	     -7.00363117	      1.71743435	     -1.15776189	     -3.77041478	      7.39861066
      1.21633333	     -0.66312334	      0.84041370	     -1.94442465	     -0.08532310	      0.99593895	      0.32772035	    -17.66670283	      2.73151659	      0.69305910	    -12.15251821	     15.05134818	     -3.34091389	      4.53393607	     22.22471339	      1.21167671	     -2.03095691	     -1.27583075	      1.94268752	     -7.12681035	      1.76929160	     -1.09066445	     -4.10130128	      7.40153367
      1.22050000	     -0.63565966	      1.10946759	     -1.94547885	     -0.07916895	      0.99554420	      0.32717929	    -17.70918689	      2.43328876	      0.67420284	    -12.82900847	     14.84233304	     -3.53197494	      4.58820849	     22.34543031	      1.54585080	     -2.00638082	     -2.17170885	      1.49827913	     -7.30790216	      1.83396809	     -1.02552968	     -4.44506924	      7.40354974
      1.22466667	     -0.62058753	      1.36780222	     -1.94000715	     -0.07303180	      0.99517569	      0.32661614	    -17.70636127	      2.14949269	      0.64882199	    -13.56481729	     14.59585343	     -3.75258274	      4.82708530	     22.45621442	      1.87786142	     -1.83996035	     -3.01913898	      0.93568439	     -7.77534903	      2.07784297	     -0.95114834	     -4.75083443	      7.40084575
      1.22883333	     -0.54733921	      1.65684423	     -1.91924733	     -0.06684685	      0.99494510	      0.32603146	    -17.75310153	      1.83315019	      0.55934951	    -14.32404320	     14.31121660	     -3.93325916	      4.87972495	     22.52112960	      2.23759491	     -1.84936817	     -3.91470094	      0.54044527	     -7.86380812	      2.12249133	     -0.93222268	     -5.12901696	      7.38418776
      1.23300000	     -0.51570438	      1.94823704	     -1.89585642	     -0.06065220	      0.99471606	      0.32542999	    -17.72975696	      1.51659619	      0.48762694	    -15.12822048	     13.97971587	     -4.11052773	      4.97015164	     22.61502405	      2.59988623	     -1.80347592	     -4.78234979	      0.10107858	     -8.01968691	      2.18671560	     -0.88022311	     -5.50296800	      7.35233301
      1.23716667	     -0.44549920	      2.22806080	     -1.85825981	     -0.05448019	      0.99458342	      0.32478941	    -17.71354273	      1.21193450	      0.36053078	    -15.99424975	     13.61944909	     -4.30070658	      5.04286221	     22.67179297	      2.95577950	     -1.77499768	     -5.66659057	     -0.26789389	     -8.18464427	      2.23041025	     -0.85696111	     -5.84190971	      7.32327886
      1.24133333	     -0.43801611	      2.49790420	     -1.81191474	     -0.04833162	      0.99442237	      0.32413018	    -17.59584790	      0.92291842	      0.25348432	    -16.91802098	     13.20570332	     -4.48781013	      5.50358068	     22.76011352	      3.31530807	     -1.53607431	     -6.47560828	     -0.81336740	     -8.69394022	      2.45721100	     -0.79139078	     -6.17202234	      7.19581747
      1.24550000	     -0.34210861	      2.79506660	     -1.76092335	     -0.04213751	      0.99444309	      0.32346977	    -17.55724792	      0.59727794	      0.06772042	    -17.86550248	     12.72766230	     -4.64680119	      5.58425121	     22.77317529	      3.68883367	     -1.53018053	     -7.34893785	     -1.04954901	     -8.74252061	      2.49081308	     -0.80703274	     -6.55721286	      7.18697101
      1.24966667	     -0.23545259	      3.10265548	     -1.70751992	     -0.03595027	      0.99453761	      0.32276783	    -17.49599248	      0.24977105	     -0.15808677	    -18.86173658	     12.12230958	     -4.78223486	      9.32520989	     22.72784940	      4.08784907	     -1.39302555	     -8.12044679	     -1.45844364	     -9.06063650	      3.62761091	     -0.86247107	     -6.93202009	      7.04640017
      1.25383333	     -0.16199410	      3.38109618	     -1.63581836	     -0.02979647	      0.99461494	      0.32206425	    -17.36740246	     -0.05821487	     -0.39045266	    -19.91788188	     11.55505560	     -4.93955276	      9.33779624	     22.76449088	      4.44464029	     -1.38487118	     -9.01182102	     -1.58089795	     -9.08480862	      3.62485851	     -0.85871793	     -7.29619577	      7.03328596
      1.25800000	     -0.08444736	      3.66100364	     -1.56505001	     -0.02364074	      0.99476218	      0.32134210	    -17.20954293	     -0.37597890	     -0.64489207	    -21.02694935	     10.92737093	     -5.06359949	      9.36617172	     22.76919336	      4.80507109	     -1.35565569	     -9.85347045	     -1.69287879	     -9.11715371	      3.61799141	     -0.86595959	     -7.65054750	      6.98286182
      1.26216667	     -0.01595172	      3.94154630	     -1.48369547	     -0.01748974	      0.99494462	      0.32060039	    -17.00822530	     -0.69994639	     -0.93363695	    -22.19029116	     10.23554947	     -5.16116612	      9.44033782	     22.76046180	      5.17128392	     -1.28698852	    -10.65535141	     -1.76433578	     -9.13395135	      3.60085000	     -0.87356204	     -8.00689562	      6.87825835
      1.26633333	      0.07222030	      4.20424260	     -1.38901251	     -0.01137814	      0.99518138	      0.31979649	    -16.79282876	     -1.01865202	     -1.28535924	    -23.40613386	      9.50825887	     -5.20955488	     10.01373788	     22.73431055	      5.52404459	     -1.25103615	    -11.47613910	     -1.73442542	     -9.14376929	      3.45942837	     -0.91941375	     -8.30632364	      6.52572179
